<svg xmlns="http://www.w3.org/2000/svg" viewBox="0 0 376.76 230.1">
	<defs>
		<style>
			.cls-1 {
				fill: #4166b0;
			}
		</style>
	</defs>
	<title>TEZGOV</title>
	<g id="Layer_2" data-name="Layer 2">
		<g id="Layer_1-2" data-name="Layer 1">
			<path class="cls-1"
				d="M308.26,193.62c0-4.57.08-9.14.12-13.48.32-29.64-1.2-89.3,11-124.18,6.47-18.46,15.16-33.67,37.09-56h-217c-16.33,3.14-34.19,15-50.86,49.14C73.7,79.65,69,131.9,69.08,165.86c0,10.67,0,19.88.1,27.76h-40L0,230.1H70.06v-.34c0,.11,0,.23,0,.34H347.57l29.19-36.48ZM298.44,168c0,4.34,0,8.45-.06,12-.22,20.6-.19,32.77-.07,40.06H257.7c0-1,0-1.61,0-1.61-2-35.57-46.76-51.74-51-53.4-.17-.09-.17-.26-.09-.44l46.15-46.32v-5a1.53,1.53,0,0,0-1.49-1.48h-85V75.6l-31.38,6.55v4.72h1.75s7.69,0,7.69,7.69v17.22H119.93a1,1,0,0,0-.88.87v10.93h25.26v59.34c0,18.61,12,31.55,32.95,29.8a26.16,26.16,0,0,0,12.06-4.37,5.51,5.51,0,0,0,2.53-4.63v-5.86c-6.81,4.55-12.58,4.28-12.58,4.28-13.29,0-13-16.86-13-16.86v-61.7h61.17l-44,44.39c-.09,5.86-.18,10.4-.18,10.49a.23.23,0,0,0,.26.26c40.38,6.82,51.3,32.95,51.3,40.55,0,0,0,.3.07.83H79.55c-.33-10.74-.43-29.41-.47-54.25,0-34.22,4.77-84.17,18.52-112.31,12.6-25.77,26.63-40,42.89-43.54H334c-12.86,15.75-19.08,28.57-24,42.66C298.68,84.87,298.54,134.9,298.44,168Z" />
		</g>
	</g>
</svg>