<svg xmlns="http://www.w3.org/2000/svg" viewBox="0 0 376.76 311.12">
	<defs>
		<style>
			.cls-1 {
				fill: #4166b0;
			}
		</style>
	</defs>
	<title>TEZGOV</title>
	<g id="Layer_2" data-name="Layer 2">
		<g id="Layer_1-2" data-name="Layer 1">
			<path class="cls-1"
				d="M308.26,193.62c0-4.57.08-9.14.12-13.48.32-29.64-1.2-89.3,11-124.18,6.47-18.46,15.16-33.67,37.09-56h-217c-16.33,3.14-34.19,15-50.86,49.14C73.7,79.65,69,131.9,69.08,165.86c0,10.67,0,19.88.1,27.76h-40L0,230.1H70.06v-.34c0,.11,0,.23,0,.34H347.57l29.19-36.48ZM298.44,168c0,4.34,0,8.45-.06,12-.22,20.6-.19,32.77-.07,40.06H257.7c0-1,0-1.61,0-1.61-2-35.57-46.76-51.74-51-53.4-.17-.09-.17-.26-.09-.44l46.15-46.32v-5a1.53,1.53,0,0,0-1.49-1.48h-85V75.6l-31.38,6.55v4.72h1.75s7.69,0,7.69,7.69v17.22H119.93a1,1,0,0,0-.88.87v10.93h25.26v59.34c0,18.61,12,31.55,32.95,29.8a26.16,26.16,0,0,0,12.06-4.37,5.51,5.51,0,0,0,2.53-4.63v-5.86c-6.81,4.55-12.58,4.28-12.58,4.28-13.29,0-13-16.86-13-16.86v-61.7h61.17l-44,44.39c-.09,5.86-.18,10.4-.18,10.49a.23.23,0,0,0,.26.26c40.38,6.82,51.3,32.95,51.3,40.55,0,0,0,.3.07.83H79.55c-.33-10.74-.43-29.41-.47-54.25,0-34.22,4.77-84.17,18.52-112.31,12.6-25.77,26.63-40,42.89-43.54H334c-12.86,15.75-19.08,28.57-24,42.66C298.68,84.87,298.54,134.9,298.44,168Z" />
			<path class="cls-1" d="M72.47,269H57.22v41.46H47V269h-15v-8.31H72.47Z" />
			<path class="cls-1" d="M116.65,288.87H97V302.2h23.11v8.24H86.71V260.67H120V269H97v11.86h19.69Z" />
			<path class="cls-1" d="M145.36,302.2h25.08v8.24h-37.9v-6L157.15,269H132.57v-8.31H169.9v5.88Z" />
			<path class="cls-1"
				d="M223.79,304.15a17.77,17.77,0,0,1-7.83,5.14,32.75,32.75,0,0,1-11.21,1.83,22.2,22.2,0,0,1-11.33-2.82,18.84,18.84,0,0,1-7.52-8.18,29,29,0,0,1-2.72-12.62v-3.38a30.48,30.48,0,0,1,2.52-12.9,18.52,18.52,0,0,1,7.24-8.34A20.86,20.86,0,0,1,204,260q8.86,0,13.85,4.22t5.91,12.29h-10c-.46-2.85-1.47-4.93-3-6.26a9.65,9.65,0,0,0-6.44-2,9.09,9.09,0,0,0-8,3.93q-2.74,3.93-2.77,11.69v3.18q0,7.83,3,11.83t8.72,4q5.77,0,8.24-2.47v-8.57H204.2v-7.56h19.59Z" />
			<path class="cls-1"
				d="M281.37,286.68a30.08,30.08,0,0,1-2.59,12.89,19.64,19.64,0,0,1-7.44,8.55,22,22,0,0,1-22.13,0,19.72,19.72,0,0,1-7.52-8.49A29.13,29.13,0,0,1,239,287V284.5a29.85,29.85,0,0,1,2.65-12.94,19.68,19.68,0,0,1,7.49-8.58,21.93,21.93,0,0,1,22.11,0,19.74,19.74,0,0,1,7.49,8.58,29.91,29.91,0,0,1,2.64,12.9ZM271,284.43q0-7.83-2.8-11.9a9.91,9.91,0,0,0-16,0q-2.81,4-2.84,11.78v2.42q0,7.63,2.8,11.83a9.12,9.12,0,0,0,8.07,4.2,9,9,0,0,0,7.93-4q2.77-4.05,2.8-11.8Z" />
			<path class="cls-1" d="M314.86,298.1l11.28-37.43h11.42l-17.33,49.77h-10.7l-17.26-49.77h11.38Z" />
		</g>
	</g>
</svg>