<svg width="33" height="33" viewBox="0 0 33 33" fill="none" xmlns="http://www.w3.org/2000/svg">
<path d="M11.2416 17.5824L22.4791 27.4699C22.609 27.5849 22.7665 27.6641 22.9362 27.6997C23.106 27.7354 23.2821 27.7263 23.4472 27.6734C23.6124 27.6204 23.761 27.5254 23.8783 27.3977C23.9957 27.27 24.0778 27.1139 24.1166 26.9449L28.8166 6.41988C28.856 6.24312 28.8467 6.05898 28.7896 5.8871C28.7325 5.71523 28.6298 5.56209 28.4925 5.44402C28.3552 5.32594 28.1884 5.24738 28.0099 5.21671C27.8314 5.18605 27.6479 5.20442 27.4791 5.26989L4.40409 14.3324C3.47909 14.6949 3.60409 16.0449 4.57909 16.2449L11.2416 17.5824Z" stroke="white" stroke-linecap="round" stroke-linejoin="round"/>
<path d="M11.2417 17.5823L28.2542 5.2948" stroke="white" stroke-linecap="round" stroke-linejoin="round"/>
<path d="M16.8542 22.5199L12.9542 26.4199C12.8151 26.5612 12.6371 26.6579 12.4428 26.6978C12.2486 26.7377 12.0469 26.7189 11.8633 26.6439C11.6798 26.5689 11.5227 26.441 11.412 26.2764C11.3013 26.1119 11.242 25.9182 11.2417 25.7199V17.5824" stroke="white" stroke-linecap="round" stroke-linejoin="round"/>
</svg>
