<svg xmlns="http://www.w3.org/2000/svg" xmlns:xlink="http://www.w3.org/1999/xlink" viewBox="0 0 593.98 99.27"><defs><clipPath id="a"><rect width="593.98" height="97.34" fill="none"/></clipPath></defs><title>tezgov text</title><rect width="593.98" height="97.34" fill="none"/><g clip-path="url(#a)"><path d="M80,17.59H50.39V98H30.58V17.59H1.49V1.47H80Z" fill="#4166b0"/><path d="M165.63,56.11h-38.1V82h44.81v16H107.57V1.43h64.55V17.59H127.53v23h38.18Z" fill="#4166b0"/><path d="M221.3,82h48.63v16H196.44V86.3l47.72-68.71H196.5V1.47h72.38v11.4Z" fill="#4166b0"/><path d="M373.37,85.74a34.46,34.46,0,0,1-15.18,10,63.53,63.53,0,0,1-21.73,3.55,43,43,0,0,1-22-5.47,36.47,36.47,0,0,1-14.58-15.86,56.2,56.2,0,0,1-5.28-24.47V46.9a59.07,59.07,0,0,1,4.89-25,35.88,35.88,0,0,1,14-16.17A40.44,40.44,0,0,1,335,.13q17.17,0,26.86,8.19t11.46,23.83H353.93c-.9-5.53-2.85-9.56-5.82-12.14a18.74,18.74,0,0,0-12.49-3.88,17.64,17.64,0,0,0-15.51,7.62q-5.31,7.62-5.37,22.67v6.17q0,15.18,5.82,22.93t16.9,7.76q11.19,0,16-4.79V61.87H335.39V47.21h38Z" fill="#4166b0"/><path d="M485,51.87a58.25,58.25,0,0,1-5,25,38.06,38.06,0,0,1-14.43,16.58,42.69,42.69,0,0,1-42.91,0A38.35,38.35,0,0,1,408.08,77a56.4,56.4,0,0,1-5.21-24.49V47.64A57.82,57.82,0,0,1,408,22.55,38.25,38.25,0,0,1,422.53,5.91a42.57,42.57,0,0,1,42.87,0,38.29,38.29,0,0,1,14.52,16.64,57.93,57.93,0,0,1,5.12,25ZM464.91,47.5q0-15.18-5.42-23.07a19.23,19.23,0,0,0-31,0Q423,32.19,423,47.27V52q0,14.81,5.43,22.94A17.74,17.74,0,0,0,444,83.05a17.46,17.46,0,0,0,15.38-7.76q5.37-7.85,5.43-22.88Z" fill="#4166b0"/><path d="M550,74,571.83,1.43H594l-33.6,96.51H539.62L506.16,1.43h22.06Z" fill="#4166b0"/></g></svg>