<svg width="33" height="32" viewBox="0 0 33 32" fill="none" xmlns="http://www.w3.org/2000/svg">
<path d="M16.8127 10.9996C16.8127 8.2496 19.1252 5.9621 21.8752 5.9996C22.8382 6.01072 23.7776 6.29975 24.5803 6.83194C25.3831 7.36414 26.015 8.11685 26.4002 8.9996H30.8127L26.7752 13.0371C26.5146 17.0928 24.7193 20.8971 21.7542 23.6764C18.7891 26.4558 14.8768 28.0016 10.8127 27.9996C6.81269 27.9996 5.81269 26.4996 5.81269 26.4996C5.81269 26.4996 9.81269 24.9996 11.8127 21.9996C11.8127 21.9996 3.81269 17.9996 5.81269 6.9996C5.81269 6.9996 10.8127 11.9996 16.8127 12.9996V10.9996Z" stroke="white" stroke-linecap="round" stroke-linejoin="round"/>
</svg>
