<?xml version="1.0" standalone="no"?>
<!DOCTYPE svg PUBLIC "-//W3C//DTD SVG 20010904//EN"
 "http://www.w3.org/TR/2001/REC-SVG-20010904/DTD/svg10.dtd">
<svg version="1.0" xmlns="http://www.w3.org/2000/svg"
 width="754.000000pt" height="754.000000pt" viewBox="0 0 754.000000 754.000000"
 preserveAspectRatio="xMidYMid meet">
<metadata>
Created by potrace 1.14, written by Peter Selinger 2001-2017
</metadata>
<g transform="translate(0.000000,754.000000) scale(0.100000,-0.100000)"
fill="#000000" stroke="none">
<path d="M2745 6873 c-45 -10 -158 -54 -217 -84 -166 -83 -344 -242 -478 -429
-30 -41 -57 -77 -60 -80 -11 -11 -110 -179 -110 -189 0 -5 -3 -11 -8 -13 -21
-9 -189 -369 -207 -443 -1 -5 -5 -17 -8 -25 -4 -8 -17 -53 -31 -100 -13 -47
-27 -92 -30 -100 -3 -8 -8 -26 -10 -40 -5 -21 -23 -97 -51 -215 -3 -11 -7 -33
-10 -50 -2 -16 -13 -75 -24 -130 -11 -54 -18 -102 -15 -106 2 -4 0 -10 -6 -14
-6 -4 -8 -10 -5 -15 3 -4 1 -30 -4 -56 -5 -27 -12 -74 -16 -104 -3 -30 -8 -66
-10 -80 -5 -25 -10 -71 -20 -190 -3 -36 -8 -83 -10 -105 -3 -22 -7 -78 -11
-125 -3 -47 -8 -110 -10 -140 -3 -30 -6 -275 -8 -545 l-3 -490 -399 0 -399 0
-147 -185 c-82 -102 -154 -192 -161 -200 -6 -8 -55 -69 -107 -135 -52 -66 -97
-122 -100 -125 -12 -10 -60 -77 -60 -83 0 -3 1563 -6 3473 -6 l3474 0 36 47
c19 26 44 57 54 68 10 12 32 39 48 60 17 21 45 56 63 78 51 63 53 66 121 154
35 45 68 82 73 82 4 0 8 6 8 14 0 8 3 16 8 18 19 8 163 201 154 207 -5 3 -312
6 -682 5 l-671 0 6 605 c3 333 8 647 10 696 11 272 32 558 51 694 2 18 7 57 9
86 3 28 8 63 11 76 3 13 6 38 8 54 6 46 16 101 38 205 11 52 21 102 23 110 16
79 82 281 116 357 10 24 19 45 19 48 0 18 120 248 175 334 60 95 171 248 230
316 14 17 45 52 68 79 50 59 63 73 142 154 l59 62 -2184 -1 c-1202 -1 -2194
-3 -2205 -6z m3925 -212 c-5 -11 -13 -21 -18 -23 -7 -3 -74 -94 -166 -225 -20
-29 -33 -53 -29 -53 5 0 3 -4 -2 -8 -40 -27 -209 -387 -260 -552 -9 -30 -19
-62 -22 -70 -3 -8 -7 -19 -8 -25 -2 -5 -8 -30 -15 -55 -7 -25 -13 -49 -15 -55
-1 -5 -6 -28 -10 -50 -12 -55 -12 -55 -15 -57 -2 -3 -3 -10 -19 -103 -14 -75
-19 -105 -30 -180 -19 -121 -22 -141 -27 -195 -2 -30 -6 -71 -9 -90 -7 -50
-21 -230 -30 -383 -14 -218 -19 -550 -28 -1847 l-2 -215 -402 0 c-357 -1 -403
1 -404 15 -2 90 -39 242 -78 323 -30 62 -71 137 -81 147 -3 3 -24 30 -48 62
-24 31 -83 94 -132 140 -100 94 -97 91 -165 138 -27 19 -52 37 -55 40 -30 33
-355 199 -437 224 -13 4 -23 11 -23 16 0 5 207 216 459 470 l460 462 0 52 c0
29 -4 58 -8 65 -7 10 -182 13 -865 12 l-856 0 -1 27 c0 15 -1 179 -1 364 0
244 -4 335 -12 332 -6 -2 -22 -5 -36 -8 -14 -2 -45 -9 -70 -15 -25 -5 -58 -12
-75 -15 -16 -3 -41 -8 -55 -11 -40 -9 -123 -26 -150 -31 -14 -3 -32 -7 -40 -9
-8 -3 -31 -7 -51 -10 -19 -3 -58 -11 -85 -18 -49 -12 -49 -12 -52 -57 l-3 -45
62 -12 c35 -7 69 -20 79 -31 44 -47 48 -69 49 -270 l1 -193 -245 2 c-134 0
-248 -2 -253 -5 -10 -6 -13 -225 -3 -227 3 -1 114 -3 246 -4 132 -1 243 -3
247 -4 4 0 7 -286 7 -633 -1 -708 0 -721 67 -857 95 -192 285 -296 536 -293
158 2 332 83 345 161 2 15 4 59 3 109 0 27 0 27 -58 -2 -69 -35 -119 -48 -181
-51 -135 -5 -226 75 -262 232 -12 54 -17 1319 -5 1331 4 4 279 7 611 7 l604 0
-37 -38 c-20 -21 -218 -221 -439 -444 l-402 -407 -3 -70 c-2 -39 -2 -88 0
-108 3 -39 3 -39 91 -53 19 -3 37 -8 41 -10 3 -2 17 -6 31 -9 42 -9 152 -43
205 -64 62 -25 219 -106 258 -134 191 -135 322 -297 380 -470 14 -42 26 -87
26 -100 l0 -24 -1554 0 -1553 0 -3 80 c-6 177 -3 1318 4 1426 3 63 9 147 11
185 5 78 14 181 20 235 13 112 28 239 31 265 1 17 5 39 7 50 3 11 8 45 12 75
4 30 9 64 11 75 3 27 15 92 20 119 2 11 7 35 10 51 3 17 10 48 15 70 5 22 12
49 14 60 2 11 6 27 8 35 2 8 7 33 11 55 5 22 14 59 22 82 7 23 15 52 18 65 6
32 58 189 89 268 33 86 128 273 189 374 27 45 55 90 61 101 75 124 327 395
367 395 6 0 10 4 10 8 0 12 131 80 207 107 l68 24 1943 1 c1910 0 1943 0 1932
-19z"/>
<path d="M4015 1668 c-164 -21 -285 -137 -331 -317 -16 -66 -23 -252 -11 -326
29 -188 139 -316 311 -364 40 -11 209 -9 261 3 55 13 120 37 155 59 43 26 91
78 83 91 -9 13 -9 57 -1 89 3 15 3 27 -1 27 -7 0 -5 86 4 108 2 6 1 12 -3 12
-4 0 -6 31 -6 68 l2 69 -182 0 c-99 1 -188 -1 -196 -3 -11 -3 -15 -19 -15 -68
0 -36 4 -68 8 -73 5 -4 47 -8 94 -8 l86 0 -1 -75 c0 -103 1 -98 -24 -114 -54
-35 -172 -39 -240 -7 -93 42 -129 125 -133 305 -2 103 14 218 37 257 22 37 60
79 74 79 7 0 14 4 16 9 2 6 31 13 64 16 102 11 173 -31 198 -117 l13 -43 97
-1 c53 -1 98 1 100 5 9 15 -30 130 -57 171 -43 65 -88 99 -165 125 -77 27
-151 34 -237 23z"/>
<path d="M5154 1669 c-192 -25 -319 -153 -359 -361 -7 -40 -11 -115 -9 -181 5
-194 64 -321 189 -407 144 -99 369 -88 504 26 30 25 93 108 98 129 1 6 12 37
25 70 18 49 22 85 25 195 3 154 -15 244 -67 335 -80 140 -239 216 -406 194z
m146 -189 c87 -45 129 -161 123 -339 -5 -159 -47 -262 -122 -300 -38 -20 -106
-33 -116 -23 -3 3 -17 7 -31 8 -59 6 -116 71 -144 164 -15 49 -18 87 -16 183
4 135 8 163 35 216 53 103 171 142 271 91z"/>
<path d="M1765 1660 l-30 -5 0 -493 c0 -430 2 -493 15 -496 13 -3 636 -1 650
3 4 1 5 125 1 154 -1 4 -31 7 -68 6 -38 0 -141 -1 -230 0 l-163 1 3 133 2 132
185 1 c102 1 190 2 195 3 8 1 12 78 6 141 -1 14 -27 16 -193 16 l-193 -1 -2
118 c-2 104 0 117 15 118 9 1 113 2 231 3 l214 1 0 78 c-1 43 -3 80 -5 82 -6
7 -598 11 -633 5z"/>
<path d="M2949 1662 l-296 -2 1 -83 1 -82 243 0 c133 0 242 -1 242 -3 0 -4
-46 -73 -129 -192 -45 -63 -115 -164 -157 -225 -41 -60 -104 -152 -140 -204
-63 -91 -65 -95 -62 -150 l3 -56 378 -1 377 0 0 83 0 83 -92 -1 c-51 0 -165 0
-252 0 -153 1 -159 2 -143 19 10 10 17 23 17 29 0 6 4 13 8 15 4 2 42 53 82
113 41 61 77 112 80 115 3 3 23 32 46 65 22 33 74 110 116 170 41 61 87 128
102 149 21 31 26 51 26 97 l0 59 -69 -1 c-38 -1 -73 0 -78 2 -4 2 -141 3 -304
1z"/>
<path d="M5892 1662 c-36 -3 -43 -6 -37 -20 4 -9 22 -64 42 -122 19 -58 38
-114 43 -125 4 -11 13 -33 18 -50 6 -16 13 -39 17 -50 19 -54 150 -433 182
-526 l36 -106 109 1 108 1 17 50 c10 28 17 52 18 55 0 3 6 19 12 35 15 37 64
179 138 395 31 91 60 174 65 185 4 11 22 63 40 115 18 52 35 102 38 110 3 8 6
17 6 20 1 3 5 10 9 17 8 13 -87 21 -172 13 -53 -5 -54 -6 -68 -44 -7 -22 -15
-49 -18 -60 -2 -12 -31 -109 -65 -216 -33 -107 -62 -204 -65 -215 -20 -84 -60
-204 -65 -198 -6 7 -42 121 -55 173 -2 8 -13 47 -25 85 -12 39 -26 86 -31 105
-6 19 -21 69 -34 110 -12 41 -35 116 -51 167 -28 95 -37 105 -84 93 -14 -3
-38 -4 -55 -1 -16 3 -50 5 -73 3z"/>
<path d="M639 1613 c-3 -126 -11 -119 151 -120 77 0 143 -2 146 -5 2 -3 6
-189 7 -414 l2 -409 97 -2 c66 -1 98 2 100 10 2 7 4 193 4 415 -1 396 -1 402
19 403 11 1 80 1 153 1 l132 1 0 83 0 84 -405 0 -405 0 -1 -47z"/>
</g>
</svg>
